<svg class="border shadow-md" viewBox="0 0 653.84 653.84" style="width: 653.84px; height: 653.84px;" xmlns="http://www.w3.org/2000/svg" preserveAspectRatio="none"><rect class="bg" id="bg" x="0" y="0" width="653.84" height="653.84" fill="#ffffff"/><path d="M 0 -65.384 L 0 -65.38&#10;                L 44.00 -22.38&#10;                L 130.768 -65.38 L 130.768 -65.38&#10;                L 174.36 -32.69&#10;                L 261.536 -65.38 L 261.536 -65.38&#10;                L 305.13 -16.38&#10;                L 392.304 -65.38 L 392.304 -65.38&#10;                L 481.30 -18.38&#10;                L 523.072 -65.38 L 523.072 -65.38&#10;                L 566.66 -32.69&#10;                L 653.84 -65.38 L 653.84 -65.38&#10;                L 697.43 -32.69&#10;                L 784.6080000000001 -65.38  V 653.84 H 0 V -65.38 Z" fill="#002AB0"/><path d="M 0 0 L 0 0.00&#10;                L 51.00 43.00&#10;                L 130.768 0.00 L 130.768 0.00&#10;                L 174.36 32.69&#10;                L 261.536 0.00 L 261.536 0.00&#10;                L 305.13 53.00&#10;                L 392.304 0.00 L 392.304 0.00&#10;                L 464.30 55.00&#10;                L 523.072 0.00 L 523.072 0.00&#10;                L 605.07 46.00&#10;                L 653.84 0.00 L 653.84 0.00&#10;                L 697.43 43.00&#10;                L 784.6080000000001 0.00  V 653.84 H 0 V 0.00 Z" fill="#0028a7"/><path d="M 0 65.384 L 0 65.38&#10;                L 44.00 98.08&#10;                L 130.768 65.38 L 130.768 65.38&#10;                L 174.36 112.38&#10;                L 261.536 65.38 L 261.536 65.38&#10;                L 352.54 98.08&#10;                L 392.304 65.38 L 392.304 65.38&#10;                L 435.89 98.08&#10;                L 523.072 65.38 L 523.072 65.38&#10;                L 566.66 104.38&#10;                L 653.84 65.38 L 653.84 65.38&#10;                L 717.84 98.08&#10;                L 784.6080000000001 65.38  V 653.84 H 0 V 65.38 Z" fill="#00269e"/><path d="M 0 130.768 L 0 130.77&#10;                L 56.00 171.77&#10;                L 130.768 130.77 L 130.768 130.77&#10;                L 185.77 163.46&#10;                L 261.536 130.77 L 261.536 130.77&#10;                L 326.54 163.46&#10;                L 392.304 130.77 L 392.304 130.77&#10;                L 453.30 163.46&#10;                L 523.072 130.77 L 523.072 130.77&#10;                L 596.07 163.46&#10;                L 653.84 130.77 L 653.84 130.77&#10;                L 711.84 170.77&#10;                L 784.6080000000001 130.77  V 653.84 H 0 V 130.77 Z" fill="#002495"/><path d="M 0 196.152 L 0 196.15&#10;                L 43.59 235.15&#10;                L 130.768 196.15 L 130.768 196.15&#10;                L 174.36 228.84&#10;                L 261.536 196.15 L 261.536 196.15&#10;                L 347.54 228.84&#10;                L 392.304 196.15 L 392.304 196.15&#10;                L 486.30 228.84&#10;                L 523.072 196.15 L 523.072 196.15&#10;                L 613.07 228.84&#10;                L 653.84 196.15 L 653.84 196.15&#10;                L 697.43 254.15&#10;                L 784.6080000000001 196.15  V 653.84 H 0 V 196.15 Z" fill="#00228c"/><path d="M 0 261.536 L 0 261.54&#10;                L 87.00 301.54&#10;                L 130.768 261.54 L 130.768 261.54&#10;                L 202.77 300.54&#10;                L 261.536 261.54 L 261.536 261.54&#10;                L 305.13 294.23&#10;                L 392.304 261.54 L 392.304 261.54&#10;                L 449.30 318.54&#10;                L 523.072 261.54 L 523.072 261.54&#10;                L 613.07 299.54&#10;                L 653.84 261.54 L 653.84 261.54&#10;                L 718.84 294.23&#10;                L 784.6080000000001 261.54  V 653.84 H 0 V 261.54 Z" fill="#002083"/><path d="M 0 326.92 L 0 326.92&#10;                L 43.59 359.61&#10;                L 130.768 326.92 L 130.768 326.92&#10;                L 225.77 359.61&#10;                L 261.536 326.92 L 261.536 326.92&#10;                L 305.13 359.61&#10;                L 392.304 326.92 L 392.304 326.92&#10;                L 463.30 359.61&#10;                L 523.072 326.92 L 523.072 326.92&#10;                L 566.66 386.92&#10;                L 653.84 326.92 L 653.84 326.92&#10;                L 739.84 389.92&#10;                L 784.6080000000001 326.92  V 653.84 H 0 V 326.92 Z" fill="#001e7a"/><path d="M 0 392.304 L 0 392.30&#10;                L 43.59 425.00&#10;                L 130.768 392.30 L 130.768 392.30&#10;                L 225.77 449.30&#10;                L 261.536 392.30 L 261.536 392.30&#10;                L 311.54 455.30&#10;                L 392.304 392.30 L 392.304 392.30&#10;                L 472.30 429.30&#10;                L 523.072 392.30 L 523.072 392.30&#10;                L 593.07 425.00&#10;                L 653.84 392.30 L 653.84 392.30&#10;                L 726.84 427.30&#10;                L 784.6080000000001 392.30  V 653.84 H 0 V 392.30 Z" fill="#001c71"/><path d="M 0 457.688 L 0 457.69&#10;                L 87.00 503.69&#10;                L 130.768 457.69 L 130.768 457.69&#10;                L 174.36 507.69&#10;                L 261.536 457.69 L 261.536 457.69&#10;                L 353.54 515.69&#10;                L 392.304 457.69 L 392.304 457.69&#10;                L 435.89 490.38&#10;                L 523.072 457.69 L 523.072 457.69&#10;                L 602.07 519.69&#10;                L 653.84 457.69 L 653.84 457.69&#10;                L 697.43 504.69&#10;                L 784.6080000000001 457.69  V 653.84 H 0 V 457.69 Z" fill="#001a68"/><path d="M 0 523.072 L 0 523.07&#10;                L 43.59 555.76&#10;                L 130.768 523.07 L 130.768 523.07&#10;                L 187.77 584.07&#10;                L 261.536 523.07 L 261.536 523.07&#10;                L 306.54 555.76&#10;                L 392.304 523.07 L 392.304 523.07&#10;                L 435.89 572.07&#10;                L 523.072 523.07 L 523.072 523.07&#10;                L 566.66 572.07&#10;                L 653.84 523.07 L 653.84 523.07&#10;                L 742.84 585.07&#10;                L 784.6080000000001 523.07  V 653.84 H 0 V 523.07 Z" fill="#00185f"/><path d="M 0 588.456 L 0 588.46&#10;                L 43.59 621.15&#10;                L 130.768 588.46 L 130.768 588.46&#10;                L 174.36 643.46&#10;                L 261.536 588.46 L 261.536 588.46&#10;                L 305.13 624.46&#10;                L 392.304 588.46 L 392.304 588.46&#10;                L 481.30 640.46&#10;                L 523.072 588.46 L 523.072 588.46&#10;                L 566.66 630.46&#10;                L 653.84 588.46 L 653.84 588.46&#10;                L 711.84 621.15&#10;                L 784.6080000000001 588.46  V 653.84 H 0 V 588.46 Z" fill="#001656"/></svg>