<svg class="border shadow-md" viewBox="0 0 653.84 653.84" style="width: 653.84px; height: 653.84px;" xmlns="http://www.w3.org/2000/svg" preserveAspectRatio="none"><rect class="bg" id="bg" x="0" y="0" width="653.84" height="653.84" fill="#ffffff"/><g transform="rotate(0 326.92 326.92)"><path id="-1" d="M -426.92 -35.38 S -239.00 -88.38&#10;            0.00 -35.38 94.92 -97.38&#10;            426.92 -35.38 630.38 -73.38&#10;            853.84 -35.38 1035.76 -68.08&#10;            1280.76 -35.38 h 110 V 853.84 H -426.92 Z" fill="#1BA4FF"/><path id="0" d="M -426.92 30.00 S -223.46 -5.00&#10;            0.00 30.00 203.46 -22.00&#10;            426.92 30.00 630.38 -2.69&#10;            853.84 30.00 1050.76 -3.00&#10;            1280.76 30.00 h 110 V 853.84 H -426.92 Z" fill="#1c97f2"/><path id="1" d="M -426.92 95.38 S -223.46 62.69&#10;            0.00 95.38 203.46 62.69&#10;            426.92 95.38 630.38 62.69&#10;            853.84 95.38 954.76 62.69&#10;            1280.76 95.38 h 110 V 853.84 H -426.92 Z" fill="#1d8ae5"/><path id="2" d="M -426.92 160.77 S -223.46 98.77&#10;            0.00 160.77 85.92 128.08&#10;            426.92 160.77 630.38 128.08&#10;            853.84 160.77 959.76 102.77&#10;            1280.76 160.77 h 110 V 853.84 H -426.92 Z" fill="#1e7dd8"/><path id="3" d="M -426.92 226.15 S -317.00 193.46&#10;            0.00 226.15 203.46 178.15&#10;            426.92 226.15 630.38 192.15&#10;            853.84 226.15 1057.30 193.46&#10;            1280.76 226.15 h 110 V 853.84 H -426.92 Z" fill="#1f70cb"/><path id="4" d="M -426.92 291.54 S -324.00 236.54&#10;            0.00 291.54 203.46 258.84&#10;            426.92 291.54 630.38 258.84&#10;            853.84 291.54 1057.30 258.84&#10;            1280.76 291.54 h 110 V 853.84 H -426.92 Z" fill="#2063be"/><path id="5" d="M -426.92 356.92 S -418.00 324.23&#10;            0.00 356.92 76.92 321.92&#10;            426.92 356.92 630.38 318.92&#10;            853.84 356.92 854.76 321.92&#10;            1280.76 356.92 h 110 V 853.84 H -426.92 Z" fill="#2156b1"/><path id="6" d="M -426.92 422.30 S -223.46 388.30&#10;            0.00 422.30 34.92 389.61&#10;            426.92 422.30 630.38 389.61&#10;            853.84 422.30 903.76 389.61&#10;            1280.76 422.30 h 110 V 853.84 H -426.92 Z" fill="#2249a4"/><path id="7" d="M -426.92 487.69 S -306.00 433.69&#10;            0.00 487.69 18.92 446.69&#10;            426.92 487.69 601.84 455.00&#10;            853.84 487.69 915.76 455.00&#10;            1280.76 487.69 h 110 V 853.84 H -426.92 Z" fill="#233c97"/><path id="8" d="M -426.92 553.07 S -283.00 506.07&#10;            0.00 553.07 203.46 514.07&#10;            426.92 553.07 418.84 502.07&#10;            853.84 553.07 1057.30 496.07&#10;            1280.76 553.07 h 110 V 853.84 H -426.92 Z" fill="#242f8a"/><path id="9" d="M -426.92 618.46 S -223.46 585.76&#10;            0.00 618.46 203.46 569.46&#10;            426.92 618.46 576.84 557.46&#10;            853.84 618.46 1057.30 556.46&#10;            1280.76 618.46 h 110 V 853.84 H -426.92 Z" fill="#25227d"/></g></svg>